<svg version="1.1" xmlns="http://www.w3.org/2000/svg" xmlns:xlink="http://www.w3.org/1999/xlink" width="111.56096" height="111.56096" viewBox="0,0,111.56096,111.56096"><g transform="translate(-219.21952,-20)"><g stroke-miterlimit="10"><path d="M249.64524,20M251.33555,20l1.46381,0.84516v1.69032l-1.46381,0.84516l-1.46381,-0.84516v-1.69032zM256.40651,20M258.09682,20l1.46381,0.84516v1.69032l-1.46381,0.84516l-1.46381,-0.84516v-1.69032zM266.54841,20M268.23873,20l1.46381,0.84516v1.69032l-1.46381,0.84516l-1.46381,-0.84516v-1.69032zM276.69032,20M278.38063,20l1.46381,0.84516v1.69032l-1.46381,0.84516l-1.46381,-0.84516v-1.69032zM280.07095,20M281.76127,20l1.46381,0.84516v1.69032l-1.46381,0.84516l-1.46381,-0.84516v-1.69032zM290.21286,20M291.90318,20l1.46381,0.84516v1.69032l-1.46381,0.84516l-1.46381,-0.84516v-1.69032zM293.59349,20M295.28381,20l1.46381,0.84516v1.69032l-1.46381,0.84516l-1.46381,-0.84516v-1.69032zM300.35476,20M302.04508,20l1.46381,0.84516v1.69032l-1.46381,0.84516l-1.46381,-0.84516v-1.69032zM249.64524,23.38063M251.33555,23.38063l1.46381,0.84516v1.69032l-1.46381,0.84516l-1.46381,-0.84516v-1.69032zM253.02587,23.38063M254.71619,23.38063l1.46381,0.84516v1.69032l-1.46381,0.84516l-1.46381,-0.84516v-1.69032zM256.40651,23.38063M258.09682,23.38063l1.46381,0.84516v1.69032l-1.46381,0.84516l-1.46381,-0.84516v-1.69032zM259.78714,23.38063M261.47746,23.38063l1.46381,0.84516v1.69032l-1.46381,0.84516l-1.46381,-0.84516v-1.69032zM269.92905,23.38063M271.61937,23.38063l1.46381,0.84516v1.69032l-1.46381,0.84516l-1.46381,-0.84516v-1.69032zM290.21286,23.38063M291.90318,23.38063l1.46381,0.84516v1.69032l-1.46381,0.84516l-1.46381,-0.84516v-1.69032zM300.35476,23.38063M302.04508,23.38063l1.46381,0.84516v1.69032l-1.46381,0.84516l-1.46381,-0.84516v-1.69032zM246.2646,26.76127M247.95492,26.76127l1.46381,0.84516v1.69032l-1.46381,0.84516l-1.46381,-0.84516v-1.69032zM249.64524,26.76127M251.33555,26.76127l1.46381,0.84516v1.69032l-1.46381,0.84516l-1.46381,-0.84516v-1.69032zM253.02587,26.76127M254.71619,26.76127l1.46381,0.84516v1.69032l-1.46381,0.84516l-1.46381,-0.84516v-1.69032zM256.40651,26.76127M258.09682,26.76127l1.46381,0.84516v1.69032l-1.46381,0.84516l-1.46381,-0.84516v-1.69032zM259.78714,26.76127M261.47746,26.76127l1.46381,0.84516v1.69032l-1.46381,0.84516l-1.46381,-0.84516v-1.69032zM263.16778,26.76127M264.85809,26.76127l1.46381,0.84516v1.69032l-1.46381,0.84516l-1.46381,-0.84516v-1.69032zM266.54841,26.76127M268.23873,26.76127l1.46381,0.84516v1.69032l-1.46381,0.84516l-1.46381,-0.84516v-1.69032zM276.69032,26.76127M278.38063,26.76127l1.46381,0.84516v1.69032l-1.46381,0.84516l-1.46381,-0.84516v-1.69032zM283.45159,26.76127M285.14191,26.76127l1.46381,0.84516v1.69032l-1.46381,0.84516l-1.46381,-0.84516v-1.69032zM290.21286,26.76127M291.90318,26.76127l1.46381,0.84516v1.69032l-1.46381,0.84516l-1.46381,-0.84516v-1.69032zM293.59349,26.76127M295.28381,26.76127l1.46381,0.84516v1.69032l-1.46381,0.84516l-1.46381,-0.84516v-1.69032zM296.97413,26.76127M298.66445,26.76127l1.46381,0.84516v1.69032l-1.46381,0.84516l-1.46381,-0.84516v-1.69032zM300.35476,26.76127M302.04508,26.76127l1.46381,0.84516v1.69032l-1.46381,0.84516l-1.46381,-0.84516v-1.69032zM246.2646,30.14191M247.95492,30.14191l1.46381,0.84516v1.69031l-1.46381,0.84516l-1.46381,-0.84516v-1.69031zM249.64524,30.14191M251.33555,30.14191l1.46381,0.84516v1.69031l-1.46381,0.84516l-1.46381,-0.84516v-1.69031zM253.02587,30.14191M254.71619,30.14191l1.46381,0.84516v1.69031l-1.46381,0.84516l-1.46381,-0.84516v-1.69031zM256.40651,30.14191M258.09682,30.14191l1.46381,0.84516v1.69031l-1.46381,0.84516l-1.46381,-0.84516v-1.69031zM259.78714,30.14191M261.47746,30.14191l1.46381,0.84516v1.69031l-1.46381,0.84516l-1.46381,-0.84516v-1.69031zM269.92905,30.14191M271.61937,30.14191l1.46381,0.84516v1.69031l-1.46381,0.84516l-1.46381,-0.84516v-1.69031zM273.30968,30.14191M275,30.14191l1.46381,0.84516v1.69031l-1.46381,0.84516l-1.46381,-0.84516v-1.69031zM276.69032,30.14191M278.38063,30.14191l1.46381,0.84516v1.69031l-1.46381,0.84516l-1.46381,-0.84516v-1.69031zM286.83222,30.14191M288.52254,30.14191l1.46381,0.84516v1.69031l-1.46381,0.84516l-1.46381,-0.84516v-1.69031zM290.21286,30.14191M291.90318,30.14191l1.46381,0.84516v1.69031l-1.46381,0.84516l-1.46381,-0.84516v-1.69031zM296.97413,30.14191M298.66445,30.14191l1.46381,0.84516v1.69031l-1.46381,0.84516l-1.46381,-0.84516v-1.69031zM300.35476,30.14191M302.04508,30.14191l1.46381,0.84516v1.69031l-1.46381,0.84516l-1.46381,-0.84516v-1.69031zM249.64524,33.52254M251.33555,33.52254l1.46381,0.84516v1.69032l-1.46381,0.84516l-1.46381,-0.84516v-1.69032zM253.02587,33.52254M254.71619,33.52254l1.46381,0.84516v1.69032l-1.46381,0.84516l-1.46381,-0.84516v-1.69032zM256.40651,33.52254M258.09682,33.52254l1.46381,0.84516v1.69032l-1.46381,0.84516l-1.46381,-0.84516v-1.69032zM263.16778,33.52254M264.85809,33.52254l1.46381,0.84516v1.69032l-1.46381,0.84516l-1.46381,-0.84516v-1.69032zM266.54841,33.52254M268.23873,33.52254l1.46381,0.84516v1.69032l-1.46381,0.84516l-1.46381,-0.84516v-1.69032zM273.30968,33.52254M275,33.52254l1.46381,0.84516v1.69032l-1.46381,0.84516l-1.46381,-0.84516v-1.69032zM276.69032,33.52254M278.38063,33.52254l1.46381,0.84516v1.69032l-1.46381,0.84516l-1.46381,-0.84516v-1.69032zM286.83222,33.52254M288.52254,33.52254l1.46381,0.84516v1.69032l-1.46381,0.84516l-1.46381,-0.84516v-1.69032zM296.97413,33.52254M298.66445,33.52254l1.46381,0.84516v1.69032l-1.46381,0.84516l-1.46381,-0.84516v-1.69032zM249.64524,36.90317M251.33555,36.90317l1.46381,0.84516v1.69032l-1.46381,0.84516l-1.46381,-0.84516v-1.69032zM266.54841,36.90317M268.23873,36.90317l1.46381,0.84516v1.69032l-1.46381,0.84516l-1.46381,-0.84516v-1.69032zM273.30968,36.90317M275,36.90317l1.46381,0.84516v1.69032l-1.46381,0.84516l-1.46381,-0.84516v-1.69032zM276.69032,36.90317M278.38063,36.90317l1.46381,0.84516v1.69032l-1.46381,0.84516l-1.46381,-0.84516v-1.69032zM290.21286,36.90317M291.90318,36.90317l1.46381,0.84516v1.69032l-1.46381,0.84516l-1.46381,-0.84516v-1.69032zM300.35476,36.90317M302.04508,36.90317l1.46381,0.84516v1.69032l-1.46381,0.84516l-1.46381,-0.84516v-1.69032zM246.2646,40.28381M247.95492,40.28381l1.46381,0.84516v1.69032l-1.46381,0.84516l-1.46381,-0.84516v-1.69032zM253.02587,40.28381M254.71619,40.28381l1.46381,0.84516v1.69032l-1.46381,0.84516l-1.46381,-0.84516v-1.69032zM259.78714,40.28381M261.47746,40.28381l1.46381,0.84516v1.69032l-1.46381,0.84516l-1.46381,-0.84516v-1.69032zM266.54841,40.28381M268.23873,40.28381l1.46381,0.84516v1.69032l-1.46381,0.84516l-1.46381,-0.84516v-1.69032zM273.30968,40.28381M275,40.28381l1.46381,0.84516v1.69032l-1.46381,0.84516l-1.46381,-0.84516v-1.69032zM280.07095,40.28381M281.76127,40.28381l1.46381,0.84516v1.69032l-1.46381,0.84516l-1.46381,-0.84516v-1.69032zM286.83222,40.28381M288.52254,40.28381l1.46381,0.84516v1.69032l-1.46381,0.84516l-1.46381,-0.84516v-1.69032zM293.59349,40.28381M295.28381,40.28381l1.46381,0.84516v1.69032l-1.46381,0.84516l-1.46381,-0.84516v-1.69032zM300.35476,40.28381M302.04508,40.28381l1.46381,0.84516v1.69032l-1.46381,0.84516l-1.46381,-0.84516v-1.69032zM266.54841,43.66444M268.23873,43.66444l1.46381,0.84516v1.69032l-1.46381,0.84516l-1.46381,-0.84516v-1.69032zM280.07095,43.66444M281.76127,43.66444l1.46381,0.84516v1.69032l-1.46381,0.84516l-1.46381,-0.84516v-1.69032zM290.21286,43.66444M291.90318,43.66444l1.46381,0.84516v1.69032l-1.46381,0.84516l-1.46381,-0.84516v-1.69032zM296.97413,43.66444M298.66445,43.66444l1.46381,0.84516v1.69032l-1.46381,0.84516l-1.46381,-0.84516v-1.69032zM229.36143,47.04508M231.05174,47.04508l1.46381,0.84516v1.69031l-1.46381,0.84516l-1.46381,-0.84516v-1.69031zM232.74206,47.04508M234.43238,47.04508l1.46381,0.84516v1.69031l-1.46381,0.84516l-1.46381,-0.84516v-1.69031zM239.50333,47.04508M241.19364,47.04508l1.46381,0.84516v1.69031l-1.46381,0.84516l-1.46381,-0.84516v-1.69031zM242.88396,47.04508M244.57428,47.04508l1.46381,0.84516v1.69031l-1.46381,0.84516l-1.46381,-0.84516v-1.69031zM249.64524,47.04508M251.33555,47.04508l1.46381,0.84516v1.69031l-1.46381,0.84516l-1.46381,-0.84516v-1.69031zM256.40651,47.04508M258.09682,47.04508l1.46381,0.84516v1.69031l-1.46381,0.84516l-1.46381,-0.84516v-1.69031zM263.16778,47.04508M264.85809,47.04508l1.46381,0.84516v1.69031l-1.46381,0.84516l-1.46381,-0.84516v-1.69031zM266.54841,47.04508M268.23873,47.04508l1.46381,0.84516v1.69031l-1.46381,0.84516l-1.46381,-0.84516v-1.69031zM283.45159,47.04508M285.14191,47.04508l1.46381,0.84516v1.69031l-1.46381,0.84516l-1.46381,-0.84516v-1.69031zM290.21286,47.04508M291.90318,47.04508l1.46381,0.84516v1.69031l-1.46381,0.84516l-1.46381,-0.84516v-1.69031zM296.97413,47.04508M298.66445,47.04508l1.46381,0.84516v1.69031l-1.46381,0.84516l-1.46381,-0.84516v-1.69031zM300.35476,47.04508M302.04508,47.04508l1.46381,0.84516v1.69031l-1.46381,0.84516l-1.46381,-0.84516v-1.69031zM317.25794,47.04508M318.94826,47.04508l1.46381,0.84516v1.69031l-1.46381,0.84516l-1.46381,-0.84516v-1.69031zM320.63857,47.04508M322.32889,47.04508l1.46381,0.84516v1.69031l-1.46381,0.84516l-1.46381,-0.84516v-1.69031zM219.21952,50.42572M220.90984,50.42572l1.46381,0.84516v1.69032l-1.46381,0.84516l-1.46381,-0.84516v-1.69032zM222.60015,50.42572M224.29047,50.42572l1.46381,0.84516v1.69032l-1.46381,0.84516l-1.46381,-0.84516v-1.69032zM229.36143,50.42572M231.05174,50.42572l1.46381,0.84516v1.69032l-1.46381,0.84516l-1.46381,-0.84516v-1.69032zM232.74206,50.42572M234.43238,50.42572l1.46381,0.84516v1.69032l-1.46381,0.84516l-1.46381,-0.84516v-1.69032zM249.64524,50.42572M251.33555,50.42572l1.46381,0.84516v1.69032l-1.46381,0.84516l-1.46381,-0.84516v-1.69032zM253.02587,50.42572M254.71619,50.42572l1.46381,0.84516v1.69032l-1.46381,0.84516l-1.46381,-0.84516v-1.69032zM266.54841,50.42572M268.23873,50.42572l1.46381,0.84516v1.69032l-1.46381,0.84516l-1.46381,-0.84516v-1.69032zM276.69032,50.42572M278.38063,50.42572l1.46381,0.84516v1.69032l-1.46381,0.84516l-1.46381,-0.84516v-1.69032zM283.45159,50.42572M285.14191,50.42572l1.46381,0.84516v1.69032l-1.46381,0.84516l-1.46381,-0.84516v-1.69032zM286.83222,50.42572M288.52254,50.42572l1.46381,0.84516v1.69032l-1.46381,0.84516l-1.46381,-0.84516v-1.69032zM293.59349,50.42572M295.28381,50.42572l1.46381,0.84516v1.69032l-1.46381,0.84516l-1.46381,-0.84516v-1.69032zM300.35476,50.42572M302.04508,50.42572l1.46381,0.84516v1.69032l-1.46381,0.84516l-1.46381,-0.84516v-1.69032zM303.7354,50.42572M305.42572,50.42572l1.46381,0.84516v1.69032l-1.46381,0.84516l-1.46381,-0.84516v-1.69032zM310.49667,50.42572M312.18699,50.42572l1.46381,0.84516v1.69032l-1.46381,0.84516l-1.46381,-0.84516v-1.69032zM313.87731,50.42572M315.56762,50.42572l1.46381,0.84516v1.69032l-1.46381,0.84516l-1.46381,-0.84516v-1.69032zM320.63857,50.42572M322.32889,50.42572l1.46381,0.84516v1.69032l-1.46381,0.84516l-1.46381,-0.84516v-1.69032zM324.01921,50.42572M325.70953,50.42572l1.46381,0.84516v1.69032l-1.46381,0.84516l-1.46381,-0.84516v-1.69032zM222.60015,53.80635M224.29047,53.80635l1.46381,0.84516v1.69032l-1.46381,0.84516l-1.46381,-0.84516v-1.69032zM225.98079,53.80635M227.67111,53.80635l1.46381,0.84516v1.69032l-1.46381,0.84516l-1.46381,-0.84516v-1.69032zM229.36143,53.80635M231.05174,53.80635l1.46381,0.84516v1.69032l-1.46381,0.84516l-1.46381,-0.84516v-1.69032zM232.74206,53.80635M234.43238,53.80635l1.46381,0.84516v1.69032l-1.46381,0.84516l-1.46381,-0.84516v-1.69032zM236.12269,53.80635M237.81301,53.80635l1.46381,0.84516v1.69032l-1.46381,0.84516l-1.46381,-0.84516v-1.69032zM239.50333,53.80635M241.19364,53.80635l1.46381,0.84516v1.69032l-1.46381,0.84516l-1.46381,-0.84516v-1.69032zM242.88396,53.80635M244.57428,53.80635l1.46381,0.84516v1.69032l-1.46381,0.84516l-1.46381,-0.84516v-1.69032zM253.02587,53.80635M254.71619,53.80635l1.46381,0.84516v1.69032l-1.46381,0.84516l-1.46381,-0.84516v-1.69032zM259.78714,53.80635M261.47746,53.80635l1.46381,0.84516v1.69032l-1.46381,0.84516l-1.46381,-0.84516v-1.69032zM276.69032,53.80635M278.38063,53.80635l1.46381,0.84516v1.69032l-1.46381,0.84516l-1.46381,-0.84516v-1.69032zM280.07095,53.80635M281.76127,53.80635l1.46381,0.84516v1.69032l-1.46381,0.84516l-1.46381,-0.84516v-1.69032zM283.45159,53.80635M285.14191,53.80635l1.46381,0.84516v1.69032l-1.46381,0.84516l-1.46381,-0.84516v-1.69032zM286.83222,53.80635M288.52254,53.80635l1.46381,0.84516v1.69032l-1.46381,0.84516l-1.46381,-0.84516v-1.69032zM290.21286,53.80635M291.90318,53.80635l1.46381,0.84516v1.69032l-1.46381,0.84516l-1.46381,-0.84516v-1.69032zM296.97413,53.80635M298.66445,53.80635l1.46381,0.84516v1.69032l-1.46381,0.84516l-1.46381,-0.84516v-1.69032zM303.7354,53.80635M305.42572,53.80635l1.46381,0.84516v1.69032l-1.46381,0.84516l-1.46381,-0.84516v-1.69032zM310.49667,53.80635M312.18699,53.80635l1.46381,0.84516v1.69032l-1.46381,0.84516l-1.46381,-0.84516v-1.69032zM320.63857,53.80635M322.32889,53.80635l1.46381,0.84516v1.69032l-1.46381,0.84516l-1.46381,-0.84516v-1.69032zM324.01921,53.80635M325.70953,53.80635l1.46381,0.84516v1.69032l-1.46381,0.84516l-1.46381,-0.84516v-1.69032zM327.39985,53.80635M329.09016,53.80635l1.46381,0.84516v1.69032l-1.46381,0.84516l-1.46381,-0.84516v-1.69032zM219.21952,57.18699M220.90984,57.18699l1.46381,0.84516v1.69031l-1.46381,0.84516l-1.46381,-0.84516v-1.69031zM222.60015,57.18699M224.29047,57.18699l1.46381,0.84516v1.69031l-1.46381,0.84516l-1.46381,-0.84516v-1.69031zM229.36143,57.18699M231.05174,57.18699l1.46381,0.84516v1.69031l-1.46381,0.84516l-1.46381,-0.84516v-1.69031zM236.12269,57.18699M237.81301,57.18699l1.46381,0.84516v1.69031l-1.46381,0.84516l-1.46381,-0.84516v-1.69031zM242.88396,57.18699M244.57428,57.18699l1.46381,0.84516v1.69031l-1.46381,0.84516l-1.46381,-0.84516v-1.69031zM249.64524,57.18699M251.33555,57.18699l1.46381,0.84516v1.69031l-1.46381,0.84516l-1.46381,-0.84516v-1.69031zM253.02587,57.18699M254.71619,57.18699l1.46381,0.84516v1.69031l-1.46381,0.84516l-1.46381,-0.84516v-1.69031zM256.40651,57.18699M258.09682,57.18699l1.46381,0.84516v1.69031l-1.46381,0.84516l-1.46381,-0.84516v-1.69031zM269.92905,57.18699M271.61937,57.18699l1.46381,0.84516v1.69031l-1.46381,0.84516l-1.46381,-0.84516v-1.69031zM273.30968,57.18699M275,57.18699l1.46381,0.84516v1.69031l-1.46381,0.84516l-1.46381,-0.84516v-1.69031zM276.69032,57.18699M278.38063,57.18699l1.46381,0.84516v1.69031l-1.46381,0.84516l-1.46381,-0.84516v-1.69031zM280.07095,57.18699M281.76127,57.18699l1.46381,0.84516v1.69031l-1.46381,0.84516l-1.46381,-0.84516v-1.69031zM283.45159,57.18699M285.14191,57.18699l1.46381,0.84516v1.69031l-1.46381,0.84516l-1.46381,-0.84516v-1.69031zM286.83222,57.18699M288.52254,57.18699l1.46381,0.84516v1.69031l-1.46381,0.84516l-1.46381,-0.84516v-1.69031zM300.35476,57.18699M302.04508,57.18699l1.46381,0.84516v1.69031l-1.46381,0.84516l-1.46381,-0.84516v-1.69031zM303.7354,57.18699M305.42572,57.18699l1.46381,0.84516v1.69031l-1.46381,0.84516l-1.46381,-0.84516v-1.69031zM307.11604,57.18699M308.80636,57.18699l1.46381,0.84516v1.69031l-1.46381,0.84516l-1.46381,-0.84516v-1.69031zM310.49667,57.18699M312.18699,57.18699l1.46381,0.84516v1.69031l-1.46381,0.84516l-1.46381,-0.84516v-1.69031zM313.87731,57.18699M315.56762,57.18699l1.46381,0.84516v1.69031l-1.46381,0.84516l-1.46381,-0.84516v-1.69031zM320.63857,57.18699M322.32889,57.18699l1.46381,0.84516v1.69031l-1.46381,0.84516l-1.46381,-0.84516v-1.69031zM324.01921,57.18699M325.70953,57.18699l1.46381,0.84516v1.69031l-1.46381,0.84516l-1.46381,-0.84516v-1.69031zM222.60015,60.56762M224.29047,60.56762l1.46381,0.84516v1.69032l-1.46381,0.84516l-1.46381,-0.84516v-1.69032zM225.98079,60.56762M227.67111,60.56762l1.46381,0.84516v1.69032l-1.46381,0.84516l-1.46381,-0.84516v-1.69032zM232.74206,60.56762M234.43238,60.56762l1.46381,0.84516v1.69032l-1.46381,0.84516l-1.46381,-0.84516v-1.69032zM239.50333,60.56762M241.19364,60.56762l1.46381,0.84516v1.69032l-1.46381,0.84516l-1.46381,-0.84516v-1.69032zM246.2646,60.56762M247.95492,60.56762l1.46381,0.84516v1.69032l-1.46381,0.84516l-1.46381,-0.84516v-1.69032zM249.64524,60.56762M251.33555,60.56762l1.46381,0.84516v1.69032l-1.46381,0.84516l-1.46381,-0.84516v-1.69032zM290.21286,60.56762M291.90318,60.56762l1.46381,0.84516v1.69032l-1.46381,0.84516l-1.46381,-0.84516v-1.69032zM293.59349,60.56762M295.28381,60.56762l1.46381,0.84516v1.69032l-1.46381,0.84516l-1.46381,-0.84516v-1.69032zM296.97413,60.56762M298.66445,60.56762l1.46381,0.84516v1.69032l-1.46381,0.84516l-1.46381,-0.84516v-1.69032zM303.7354,60.56762M305.42572,60.56762l1.46381,0.84516v1.69032l-1.46381,0.84516l-1.46381,-0.84516v-1.69032zM307.11604,60.56762M308.80636,60.56762l1.46381,0.84516v1.69032l-1.46381,0.84516l-1.46381,-0.84516v-1.69032zM313.87731,60.56762M315.56762,60.56762l1.46381,0.84516v1.69032l-1.46381,0.84516l-1.46381,-0.84516v-1.69032zM317.25794,60.56762M318.94826,60.56762l1.46381,0.84516v1.69032l-1.46381,0.84516l-1.46381,-0.84516v-1.69032zM324.01921,60.56762M325.70953,60.56762l1.46381,0.84516v1.69032l-1.46381,0.84516l-1.46381,-0.84516v-1.69032zM327.39985,60.56762M329.09016,60.56762l1.46381,0.84516v1.69032l-1.46381,0.84516l-1.46381,-0.84516v-1.69032zM222.60015,63.94826M224.29047,63.94826l1.46381,0.84516v1.69032l-1.46381,0.84516l-1.46381,-0.84516v-1.69032zM229.36143,63.94826M231.05174,63.94826l1.46381,0.84516v1.69032l-1.46381,0.84516l-1.46381,-0.84516v-1.69032zM232.74206,63.94826M234.43238,63.94826l1.46381,0.84516v1.69032l-1.46381,0.84516l-1.46381,-0.84516v-1.69032zM236.12269,63.94826M237.81301,63.94826l1.46381,0.84516v1.69032l-1.46381,0.84516l-1.46381,-0.84516v-1.69032zM246.2646,63.94826M247.95492,63.94826l1.46381,0.84516v1.69032l-1.46381,0.84516l-1.46381,-0.84516v-1.69032zM253.02587,63.94826M254.71619,63.94826l1.46381,0.84516v1.69032l-1.46381,0.84516l-1.46381,-0.84516v-1.69032zM290.21286,63.94826M291.90318,63.94826l1.46381,0.84516v1.69032l-1.46381,0.84516l-1.46381,-0.84516v-1.69032zM293.59349,63.94826M295.28381,63.94826l1.46381,0.84516v1.69032l-1.46381,0.84516l-1.46381,-0.84516v-1.69032zM296.97413,63.94826M298.66445,63.94826l1.46381,0.84516v1.69032l-1.46381,0.84516l-1.46381,-0.84516v-1.69032zM303.7354,63.94826M305.42572,63.94826l1.46381,0.84516v1.69032l-1.46381,0.84516l-1.46381,-0.84516v-1.69032zM320.63857,63.94826M322.32889,63.94826l1.46381,0.84516v1.69032l-1.46381,0.84516l-1.46381,-0.84516v-1.69032zM324.01921,63.94826M325.70953,63.94826l1.46381,0.84516v1.69032l-1.46381,0.84516l-1.46381,-0.84516v-1.69032zM219.21952,67.32889M220.90984,67.32889l1.46381,0.84516v1.69031l-1.46381,0.84516l-1.46381,-0.84516v-1.69031zM225.98079,67.32889M227.67111,67.32889l1.46381,0.84516v1.69031l-1.46381,0.84516l-1.46381,-0.84516v-1.69031zM232.74206,67.32889M234.43238,67.32889l1.46381,0.84516v1.69031l-1.46381,0.84516l-1.46381,-0.84516v-1.69031zM236.12269,67.32889M237.81301,67.32889l1.46381,0.84516v1.69031l-1.46381,0.84516l-1.46381,-0.84516v-1.69031zM239.50333,67.32889M241.19364,67.32889l1.46381,0.84516v1.69031l-1.46381,0.84516l-1.46381,-0.84516v-1.69031zM242.88396,67.32889M244.57428,67.32889l1.46381,0.84516v1.69031l-1.46381,0.84516l-1.46381,-0.84516v-1.69031zM246.2646,67.32889M247.95492,67.32889l1.46381,0.84516v1.69031l-1.46381,0.84516l-1.46381,-0.84516v-1.69031zM253.02587,67.32889M254.71619,67.32889l1.46381,0.84516v1.69031l-1.46381,0.84516l-1.46381,-0.84516v-1.69031zM256.40651,67.32889M258.09682,67.32889l1.46381,0.84516v1.69031l-1.46381,0.84516l-1.46381,-0.84516v-1.69031zM307.11604,67.32889M308.80636,67.32889l1.46381,0.84516v1.69031l-1.46381,0.84516l-1.46381,-0.84516v-1.69031zM313.87731,67.32889M315.56762,67.32889l1.46381,0.84516v1.69031l-1.46381,0.84516l-1.46381,-0.84516v-1.69031zM317.25794,67.32889M318.94826,67.32889l1.46381,0.84516v1.69031l-1.46381,0.84516l-1.46381,-0.84516v-1.69031zM320.63857,67.32889M322.32889,67.32889l1.46381,0.84516v1.69031l-1.46381,0.84516l-1.46381,-0.84516v-1.69031zM219.21952,70.70953M220.90984,70.70953l1.46381,0.84516v1.69032l-1.46381,0.84516l-1.46381,-0.84516v-1.69032zM222.60015,70.70953M224.29047,70.70953l1.46381,0.84516v1.69032l-1.46381,0.84516l-1.46381,-0.84516v-1.69032zM225.98079,70.70953M227.67111,70.70953l1.46381,0.84516v1.69032l-1.46381,0.84516l-1.46381,-0.84516v-1.69032zM229.36143,70.70953M231.05174,70.70953l1.46381,0.84516v1.69032l-1.46381,0.84516l-1.46381,-0.84516v-1.69032zM232.74206,70.70953M234.43238,70.70953l1.46381,0.84516v1.69032l-1.46381,0.84516l-1.46381,-0.84516v-1.69032zM242.88396,70.70953M244.57428,70.70953l1.46381,0.84516v1.69032l-1.46381,0.84516l-1.46381,-0.84516v-1.69032zM246.2646,70.70953M247.95492,70.70953l1.46381,0.84516v1.69032l-1.46381,0.84516l-1.46381,-0.84516v-1.69032zM296.97413,70.70953M298.66445,70.70953l1.46381,0.84516v1.69032l-1.46381,0.84516l-1.46381,-0.84516v-1.69032zM303.7354,70.70953M305.42572,70.70953l1.46381,0.84516v1.69032l-1.46381,0.84516l-1.46381,-0.84516v-1.69032zM313.87731,70.70953M315.56762,70.70953l1.46381,0.84516v1.69032l-1.46381,0.84516l-1.46381,-0.84516v-1.69032zM320.63857,70.70953M322.32889,70.70953l1.46381,0.84516v1.69032l-1.46381,0.84516l-1.46381,-0.84516v-1.69032zM324.01921,70.70953M325.70953,70.70953l1.46381,0.84516v1.69032l-1.46381,0.84516l-1.46381,-0.84516v-1.69032zM219.21952,74.09016M220.90984,74.09016l1.46381,0.84516v1.69032l-1.46381,0.84516l-1.46381,-0.84516v-1.69032zM222.60015,74.09016M224.29047,74.09016l1.46381,0.84516v1.69032l-1.46381,0.84516l-1.46381,-0.84516v-1.69032zM239.50333,74.09016M241.19364,74.09016l1.46381,0.84516v1.69032l-1.46381,0.84516l-1.46381,-0.84516v-1.69032zM242.88396,74.09016M244.57428,74.09016l1.46381,0.84516v1.69032l-1.46381,0.84516l-1.46381,-0.84516v-1.69032zM256.40651,74.09016M258.09682,74.09016l1.46381,0.84516v1.69032l-1.46381,0.84516l-1.46381,-0.84516v-1.69032zM303.7354,74.09016M305.42572,74.09016l1.46381,0.84516v1.69032l-1.46381,0.84516l-1.46381,-0.84516v-1.69032zM307.11604,74.09016M308.80636,74.09016l1.46381,0.84516v1.69032l-1.46381,0.84516l-1.46381,-0.84516v-1.69032zM310.49667,74.09016M312.18699,74.09016l1.46381,0.84516v1.69032l-1.46381,0.84516l-1.46381,-0.84516v-1.69032zM313.87731,74.09016M315.56762,74.09016l1.46381,0.84516v1.69032l-1.46381,0.84516l-1.46381,-0.84516v-1.69032zM320.63857,74.09016M322.32889,74.09016l1.46381,0.84516v1.69032l-1.46381,0.84516l-1.46381,-0.84516v-1.69032zM324.01921,74.09016M325.70953,74.09016l1.46381,0.84516v1.69032l-1.46381,0.84516l-1.46381,-0.84516v-1.69032zM327.39985,74.09016M329.09016,74.09016l1.46381,0.84516v1.69032l-1.46381,0.84516l-1.46381,-0.84516v-1.69032zM219.21952,77.4708M220.90984,77.4708l1.46381,0.84516v1.69031l-1.46381,0.84516l-1.46381,-0.84516v-1.69031zM222.60015,77.4708M224.29047,77.4708l1.46381,0.84516v1.69031l-1.46381,0.84516l-1.46381,-0.84516v-1.69031zM229.36143,77.4708M231.05174,77.4708l1.46381,0.84516v1.69031l-1.46381,0.84516l-1.46381,-0.84516v-1.69031zM236.12269,77.4708M237.81301,77.4708l1.46381,0.84516v1.69031l-1.46381,0.84516l-1.46381,-0.84516v-1.69031zM246.2646,77.4708M247.95492,77.4708l1.46381,0.84516v1.69031l-1.46381,0.84516l-1.46381,-0.84516v-1.69031zM249.64524,77.4708M251.33555,77.4708l1.46381,0.84516v1.69031l-1.46381,0.84516l-1.46381,-0.84516v-1.69031zM256.40651,77.4708M258.09682,77.4708l1.46381,0.84516v1.69031l-1.46381,0.84516l-1.46381,-0.84516v-1.69031zM293.59349,77.4708M295.28381,77.4708l1.46381,0.84516v1.69031l-1.46381,0.84516l-1.46381,-0.84516v-1.69031zM300.35476,77.4708M302.04508,77.4708l1.46381,0.84516v1.69031l-1.46381,0.84516l-1.46381,-0.84516v-1.69031zM303.7354,77.4708M305.42572,77.4708l1.46381,0.84516v1.69031l-1.46381,0.84516l-1.46381,-0.84516v-1.69031zM307.11604,77.4708M308.80636,77.4708l1.46381,0.84516v1.69031l-1.46381,0.84516l-1.46381,-0.84516v-1.69031zM310.49667,77.4708M312.18699,77.4708l1.46381,0.84516v1.69031l-1.46381,0.84516l-1.46381,-0.84516v-1.69031zM313.87731,77.4708M315.56762,77.4708l1.46381,0.84516v1.69031l-1.46381,0.84516l-1.46381,-0.84516v-1.69031zM317.25794,77.4708M318.94826,77.4708l1.46381,0.84516v1.69031l-1.46381,0.84516l-1.46381,-0.84516v-1.69031zM225.98079,80.85143M227.67111,80.85143l1.46381,0.84516v1.69032l-1.46381,0.84516l-1.46381,-0.84516v-1.69032zM236.12269,80.85143M237.81301,80.85143l1.46381,0.84516v1.69032l-1.46381,0.84516l-1.46381,-0.84516v-1.69032zM239.50333,80.85143M241.19364,80.85143l1.46381,0.84516v1.69032l-1.46381,0.84516l-1.46381,-0.84516v-1.69032zM242.88396,80.85143M244.57428,80.85143l1.46381,0.84516v1.69032l-1.46381,0.84516l-1.46381,-0.84516v-1.69032zM296.97413,80.85143M298.66445,80.85143l1.46381,0.84516v1.69032l-1.46381,0.84516l-1.46381,-0.84516v-1.69032zM317.25794,80.85143M318.94826,80.85143l1.46381,0.84516v1.69032l-1.46381,0.84516l-1.46381,-0.84516v-1.69032zM320.63857,80.85143M322.32889,80.85143l1.46381,0.84516v1.69032l-1.46381,0.84516l-1.46381,-0.84516v-1.69032zM225.98079,84.23207M227.67111,84.23207l1.46381,0.84516v1.69031l-1.46381,0.84516l-1.46381,-0.84516v-1.69031zM229.36143,84.23207M231.05174,84.23207l1.46381,0.84516v1.69031l-1.46381,0.84516l-1.46381,-0.84516v-1.69031zM232.74206,84.23207M234.43238,84.23207l1.46381,0.84516v1.69031l-1.46381,0.84516l-1.46381,-0.84516v-1.69031zM249.64524,84.23207M251.33555,84.23207l1.46381,0.84516v1.69031l-1.46381,0.84516l-1.46381,-0.84516v-1.69031zM253.02587,84.23207M254.71619,84.23207l1.46381,0.84516v1.69031l-1.46381,0.84516l-1.46381,-0.84516v-1.69031zM293.59349,84.23207M295.28381,84.23207l1.46381,0.84516v1.69031l-1.46381,0.84516l-1.46381,-0.84516v-1.69031zM296.97413,84.23207M298.66445,84.23207l1.46381,0.84516v1.69031l-1.46381,0.84516l-1.46381,-0.84516v-1.69031zM300.35476,84.23207M302.04508,84.23207l1.46381,0.84516v1.69031l-1.46381,0.84516l-1.46381,-0.84516v-1.69031zM303.7354,84.23207M305.42572,84.23207l1.46381,0.84516v1.69031l-1.46381,0.84516l-1.46381,-0.84516v-1.69031zM310.49667,84.23207M312.18699,84.23207l1.46381,0.84516v1.69031l-1.46381,0.84516l-1.46381,-0.84516v-1.69031zM317.25794,84.23207M318.94826,84.23207l1.46381,0.84516v1.69031l-1.46381,0.84516l-1.46381,-0.84516v-1.69031zM320.63857,84.23207M322.32889,84.23207l1.46381,0.84516v1.69031l-1.46381,0.84516l-1.46381,-0.84516v-1.69031zM324.01921,84.23207M325.70953,84.23207l1.46381,0.84516v1.69031l-1.46381,0.84516l-1.46381,-0.84516v-1.69031zM229.36143,87.6127M231.05174,87.6127l1.46381,0.84516v1.69032l-1.46381,0.84516l-1.46381,-0.84516v-1.69032zM232.74206,87.6127M234.43238,87.6127l1.46381,0.84516v1.69032l-1.46381,0.84516l-1.46381,-0.84516v-1.69032zM239.50333,87.6127M241.19364,87.6127l1.46381,0.84516v1.69032l-1.46381,0.84516l-1.46381,-0.84516v-1.69032zM242.88396,87.6127M244.57428,87.6127l1.46381,0.84516v1.69032l-1.46381,0.84516l-1.46381,-0.84516v-1.69032zM249.64524,87.6127M251.33555,87.6127l1.46381,0.84516v1.69032l-1.46381,0.84516l-1.46381,-0.84516v-1.69032zM293.59349,87.6127M295.28381,87.6127l1.46381,0.84516v1.69032l-1.46381,0.84516l-1.46381,-0.84516v-1.69032zM307.11604,87.6127M308.80636,87.6127l1.46381,0.84516v1.69032l-1.46381,0.84516l-1.46381,-0.84516v-1.69032zM310.49667,87.6127M312.18699,87.6127l1.46381,0.84516v1.69032l-1.46381,0.84516l-1.46381,-0.84516v-1.69032zM317.25794,87.6127M318.94826,87.6127l1.46381,0.84516v1.69032l-1.46381,0.84516l-1.46381,-0.84516v-1.69032zM327.39985,87.6127M329.09016,87.6127l1.46381,0.84516v1.69032l-1.46381,0.84516l-1.46381,-0.84516v-1.69032zM219.21952,90.99334M220.90984,90.99334l1.46381,0.84516v1.69032l-1.46381,0.84516l-1.46381,-0.84516v-1.69032zM236.12269,90.99334M237.81301,90.99334l1.46381,0.84516v1.69032l-1.46381,0.84516l-1.46381,-0.84516v-1.69032zM246.2646,90.99334M247.95492,90.99334l1.46381,0.84516v1.69032l-1.46381,0.84516l-1.46381,-0.84516v-1.69032zM256.40651,90.99334M258.09682,90.99334l1.46381,0.84516v1.69032l-1.46381,0.84516l-1.46381,-0.84516v-1.69032zM259.78714,90.99334M261.47746,90.99334l1.46381,0.84516v1.69032l-1.46381,0.84516l-1.46381,-0.84516v-1.69032zM266.54841,90.99334M268.23873,90.99334l1.46381,0.84516v1.69032l-1.46381,0.84516l-1.46381,-0.84516v-1.69032zM269.92905,90.99334M271.61937,90.99334l1.46381,0.84516v1.69032l-1.46381,0.84516l-1.46381,-0.84516v-1.69032zM273.30968,90.99334M275,90.99334l1.46381,0.84516v1.69032l-1.46381,0.84516l-1.46381,-0.84516v-1.69032zM276.69032,90.99334M278.38063,90.99334l1.46381,0.84516v1.69032l-1.46381,0.84516l-1.46381,-0.84516v-1.69032zM293.59349,90.99334M295.28381,90.99334l1.46381,0.84516v1.69032l-1.46381,0.84516l-1.46381,-0.84516v-1.69032zM300.35476,90.99334M302.04508,90.99334l1.46381,0.84516v1.69032l-1.46381,0.84516l-1.46381,-0.84516v-1.69032zM307.11604,90.99334M308.80636,90.99334l1.46381,0.84516v1.69032l-1.46381,0.84516l-1.46381,-0.84516v-1.69032zM310.49667,90.99334M312.18699,90.99334l1.46381,0.84516v1.69032l-1.46381,0.84516l-1.46381,-0.84516v-1.69032zM313.87731,90.99334M315.56762,90.99334l1.46381,0.84516v1.69032l-1.46381,0.84516l-1.46381,-0.84516v-1.69032zM320.63857,90.99334M322.32889,90.99334l1.46381,0.84516v1.69032l-1.46381,0.84516l-1.46381,-0.84516v-1.69032zM327.39985,90.99334M329.09016,90.99334l1.46381,0.84516v1.69032l-1.46381,0.84516l-1.46381,-0.84516v-1.69032zM219.21952,94.37397M220.90984,94.37397l1.46381,0.84516v1.69031l-1.46381,0.84516l-1.46381,-0.84516v-1.69031zM229.36143,94.37397M231.05174,94.37397l1.46381,0.84516v1.69031l-1.46381,0.84516l-1.46381,-0.84516v-1.69031zM239.50333,94.37397M241.19364,94.37397l1.46381,0.84516v1.69031l-1.46381,0.84516l-1.46381,-0.84516v-1.69031zM246.2646,94.37397M247.95492,94.37397l1.46381,0.84516v1.69031l-1.46381,0.84516l-1.46381,-0.84516v-1.69031zM256.40651,94.37397M258.09682,94.37397l1.46381,0.84516v1.69031l-1.46381,0.84516l-1.46381,-0.84516v-1.69031zM259.78714,94.37397M261.47746,94.37397l1.46381,0.84516v1.69031l-1.46381,0.84516l-1.46381,-0.84516v-1.69031zM263.16778,94.37397M264.85809,94.37397l1.46381,0.84516v1.69031l-1.46381,0.84516l-1.46381,-0.84516v-1.69031zM266.54841,94.37397M268.23873,94.37397l1.46381,0.84516v1.69031l-1.46381,0.84516l-1.46381,-0.84516v-1.69031zM273.30968,94.37397M275,94.37397l1.46381,0.84516v1.69031l-1.46381,0.84516l-1.46381,-0.84516v-1.69031zM280.07095,94.37397M281.76127,94.37397l1.46381,0.84516v1.69031l-1.46381,0.84516l-1.46381,-0.84516v-1.69031zM290.21286,94.37397M291.90318,94.37397l1.46381,0.84516v1.69031l-1.46381,0.84516l-1.46381,-0.84516v-1.69031zM296.97413,94.37397M298.66445,94.37397l1.46381,0.84516v1.69031l-1.46381,0.84516l-1.46381,-0.84516v-1.69031zM307.11604,94.37397M308.80636,94.37397l1.46381,0.84516v1.69031l-1.46381,0.84516l-1.46381,-0.84516v-1.69031zM310.49667,94.37397M312.18699,94.37397l1.46381,0.84516v1.69031l-1.46381,0.84516l-1.46381,-0.84516v-1.69031zM317.25794,94.37397M318.94826,94.37397l1.46381,0.84516v1.69031l-1.46381,0.84516l-1.46381,-0.84516v-1.69031zM324.01921,94.37397M325.70953,94.37397l1.46381,0.84516v1.69031l-1.46381,0.84516l-1.46381,-0.84516v-1.69031zM327.39985,94.37397M329.09016,94.37397l1.46381,0.84516v1.69031l-1.46381,0.84516l-1.46381,-0.84516v-1.69031zM219.21952,97.75461M220.90984,97.75461l1.46381,0.84516v1.69032l-1.46381,0.84516l-1.46381,-0.84516v-1.69032zM225.98079,97.75461M227.67111,97.75461l1.46381,0.84516v1.69032l-1.46381,0.84516l-1.46381,-0.84516v-1.69032zM232.74206,97.75461M234.43238,97.75461l1.46381,0.84516v1.69032l-1.46381,0.84516l-1.46381,-0.84516v-1.69032zM246.2646,97.75461M247.95492,97.75461l1.46381,0.84516v1.69032l-1.46381,0.84516l-1.46381,-0.84516v-1.69032zM249.64524,97.75461M251.33555,97.75461l1.46381,0.84516v1.69032l-1.46381,0.84516l-1.46381,-0.84516v-1.69032zM253.02587,97.75461M254.71619,97.75461l1.46381,0.84516v1.69032l-1.46381,0.84516l-1.46381,-0.84516v-1.69032zM256.40651,97.75461M258.09682,97.75461l1.46381,0.84516v1.69032l-1.46381,0.84516l-1.46381,-0.84516v-1.69032zM269.92905,97.75461M271.61937,97.75461l1.46381,0.84516v1.69032l-1.46381,0.84516l-1.46381,-0.84516v-1.69032zM273.30968,97.75461M275,97.75461l1.46381,0.84516v1.69032l-1.46381,0.84516l-1.46381,-0.84516v-1.69032zM283.45159,97.75461M285.14191,97.75461l1.46381,0.84516v1.69032l-1.46381,0.84516l-1.46381,-0.84516v-1.69032zM286.83222,97.75461M288.52254,97.75461l1.46381,0.84516v1.69032l-1.46381,0.84516l-1.46381,-0.84516v-1.69032zM296.97413,97.75461M298.66445,97.75461l1.46381,0.84516v1.69032l-1.46381,0.84516l-1.46381,-0.84516v-1.69032zM300.35476,97.75461M302.04508,97.75461l1.46381,0.84516v1.69032l-1.46381,0.84516l-1.46381,-0.84516v-1.69032zM310.49667,97.75461M312.18699,97.75461l1.46381,0.84516v1.69032l-1.46381,0.84516l-1.46381,-0.84516v-1.69032zM313.87731,97.75461M315.56762,97.75461l1.46381,0.84516v1.69032l-1.46381,0.84516l-1.46381,-0.84516v-1.69032zM320.63857,97.75461M322.32889,97.75461l1.46381,0.84516v1.69032l-1.46381,0.84516l-1.46381,-0.84516v-1.69032zM324.01921,97.75461M325.70953,97.75461l1.46381,0.84516v1.69032l-1.46381,0.84516l-1.46381,-0.84516v-1.69032zM327.39985,97.75461M329.09016,97.75461l1.46381,0.84516v1.69032l-1.46381,0.84516l-1.46381,-0.84516v-1.69032zM219.21952,101.13524M220.90984,101.13524l1.46381,0.84516v1.69032l-1.46381,0.84516l-1.46381,-0.84516v-1.69032zM222.60015,101.13524M224.29047,101.13524l1.46381,0.84516v1.69032l-1.46381,0.84516l-1.46381,-0.84516v-1.69032zM229.36143,101.13524M231.05174,101.13524l1.46381,0.84516v1.69032l-1.46381,0.84516l-1.46381,-0.84516v-1.69032zM232.74206,101.13524M234.43238,101.13524l1.46381,0.84516v1.69032l-1.46381,0.84516l-1.46381,-0.84516v-1.69032zM236.12269,101.13524M237.81301,101.13524l1.46381,0.84516v1.69032l-1.46381,0.84516l-1.46381,-0.84516v-1.69032zM239.50333,101.13524M241.19364,101.13524l1.46381,0.84516v1.69032l-1.46381,0.84516l-1.46381,-0.84516v-1.69032zM246.2646,101.13524M247.95492,101.13524l1.46381,0.84516v1.69032l-1.46381,0.84516l-1.46381,-0.84516v-1.69032zM249.64524,101.13524M251.33555,101.13524l1.46381,0.84516v1.69032l-1.46381,0.84516l-1.46381,-0.84516v-1.69032zM256.40651,101.13524M258.09682,101.13524l1.46381,0.84516v1.69032l-1.46381,0.84516l-1.46381,-0.84516v-1.69032zM263.16778,101.13524M264.85809,101.13524l1.46381,0.84516v1.69032l-1.46381,0.84516l-1.46381,-0.84516v-1.69032zM269.92905,101.13524M271.61937,101.13524l1.46381,0.84516v1.69032l-1.46381,0.84516l-1.46381,-0.84516v-1.69032zM273.30968,101.13524M275,101.13524l1.46381,0.84516v1.69032l-1.46381,0.84516l-1.46381,-0.84516v-1.69032zM276.69032,101.13524M278.38063,101.13524l1.46381,0.84516v1.69032l-1.46381,0.84516l-1.46381,-0.84516v-1.69032zM283.45159,101.13524M285.14191,101.13524l1.46381,0.84516v1.69032l-1.46381,0.84516l-1.46381,-0.84516v-1.69032zM290.21286,101.13524M291.90318,101.13524l1.46381,0.84516v1.69032l-1.46381,0.84516l-1.46381,-0.84516v-1.69032zM293.59349,101.13524M295.28381,101.13524l1.46381,0.84516v1.69032l-1.46381,0.84516l-1.46381,-0.84516v-1.69032zM296.97413,101.13524M298.66445,101.13524l1.46381,0.84516v1.69032l-1.46381,0.84516l-1.46381,-0.84516v-1.69032zM300.35476,101.13524M302.04508,101.13524l1.46381,0.84516v1.69032l-1.46381,0.84516l-1.46381,-0.84516v-1.69032zM303.7354,101.13524M305.42572,101.13524l1.46381,0.84516v1.69032l-1.46381,0.84516l-1.46381,-0.84516v-1.69032zM307.11604,101.13524M308.80636,101.13524l1.46381,0.84516v1.69032l-1.46381,0.84516l-1.46381,-0.84516v-1.69032zM310.49667,101.13524M312.18699,101.13524l1.46381,0.84516v1.69032l-1.46381,0.84516l-1.46381,-0.84516v-1.69032zM313.87731,101.13524M315.56762,101.13524l1.46381,0.84516v1.69032l-1.46381,0.84516l-1.46381,-0.84516v-1.69032zM246.2646,104.51588M247.95492,104.51588l1.46381,0.84516v1.69031l-1.46381,0.84516l-1.46381,-0.84516v-1.69031zM253.02587,104.51588M254.71619,104.51588l1.46381,0.84516v1.69031l-1.46381,0.84516l-1.46381,-0.84516v-1.69031zM259.78714,104.51588M261.47746,104.51588l1.46381,0.84516v1.69031l-1.46381,0.84516l-1.46381,-0.84516v-1.69031zM263.16778,104.51588M264.85809,104.51588l1.46381,0.84516v1.69031l-1.46381,0.84516l-1.46381,-0.84516v-1.69031zM266.54841,104.51588M268.23873,104.51588l1.46381,0.84516v1.69031l-1.46381,0.84516l-1.46381,-0.84516v-1.69031zM280.07095,104.51588M281.76127,104.51588l1.46381,0.84516v1.69031l-1.46381,0.84516l-1.46381,-0.84516v-1.69031zM290.21286,104.51588M291.90318,104.51588l1.46381,0.84516v1.69031l-1.46381,0.84516l-1.46381,-0.84516v-1.69031zM293.59349,104.51588M295.28381,104.51588l1.46381,0.84516v1.69031l-1.46381,0.84516l-1.46381,-0.84516v-1.69031zM300.35476,104.51588M302.04508,104.51588l1.46381,0.84516v1.69031l-1.46381,0.84516l-1.46381,-0.84516v-1.69031zM313.87731,104.51588M315.56762,104.51588l1.46381,0.84516v1.69031l-1.46381,0.84516l-1.46381,-0.84516v-1.69031zM317.25794,104.51588M318.94826,104.51588l1.46381,0.84516v1.69031l-1.46381,0.84516l-1.46381,-0.84516v-1.69031zM320.63857,104.51588M322.32889,104.51588l1.46381,0.84516v1.69031l-1.46381,0.84516l-1.46381,-0.84516v-1.69031zM246.2646,107.89652M247.95492,107.89652l1.46381,0.84516v1.69032l-1.46381,0.84516l-1.46381,-0.84516v-1.69032zM253.02587,107.89652M254.71619,107.89652l1.46381,0.84516v1.69032l-1.46381,0.84516l-1.46381,-0.84516v-1.69032zM256.40651,107.89652M258.09682,107.89652l1.46381,0.84516v1.69032l-1.46381,0.84516l-1.46381,-0.84516v-1.69032zM266.54841,107.89652M268.23873,107.89652l1.46381,0.84516v1.69032l-1.46381,0.84516l-1.46381,-0.84516v-1.69032zM273.30968,107.89652M275,107.89652l1.46381,0.84516v1.69032l-1.46381,0.84516l-1.46381,-0.84516v-1.69032zM280.07095,107.89652M281.76127,107.89652l1.46381,0.84516v1.69032l-1.46381,0.84516l-1.46381,-0.84516v-1.69032zM286.83222,107.89652M288.52254,107.89652l1.46381,0.84516v1.69032l-1.46381,0.84516l-1.46381,-0.84516v-1.69032zM296.97413,107.89652M298.66445,107.89652l1.46381,0.84516v1.69032l-1.46381,0.84516l-1.46381,-0.84516v-1.69032zM300.35476,107.89652M302.04508,107.89652l1.46381,0.84516v1.69032l-1.46381,0.84516l-1.46381,-0.84516v-1.69032zM307.11604,107.89652M308.80636,107.89652l1.46381,0.84516v1.69032l-1.46381,0.84516l-1.46381,-0.84516v-1.69032zM313.87731,107.89652M315.56762,107.89652l1.46381,0.84516v1.69032l-1.46381,0.84516l-1.46381,-0.84516v-1.69032zM317.25794,107.89652M318.94826,107.89652l1.46381,0.84516v1.69032l-1.46381,0.84516l-1.46381,-0.84516v-1.69032zM259.78714,111.27715M261.47746,111.27715l1.46381,0.84516v1.69032l-1.46381,0.84516l-1.46381,-0.84516v-1.69032zM263.16778,111.27715M264.85809,111.27715l1.46381,0.84516v1.69032l-1.46381,0.84516l-1.46381,-0.84516v-1.69032zM266.54841,111.27715M268.23873,111.27715l1.46381,0.84516v1.69032l-1.46381,0.84516l-1.46381,-0.84516v-1.69032zM283.45159,111.27715M285.14191,111.27715l1.46381,0.84516v1.69032l-1.46381,0.84516l-1.46381,-0.84516v-1.69032zM290.21286,111.27715M291.90318,111.27715l1.46381,0.84516v1.69032l-1.46381,0.84516l-1.46381,-0.84516v-1.69032zM293.59349,111.27715M295.28381,111.27715l1.46381,0.84516v1.69032l-1.46381,0.84516l-1.46381,-0.84516v-1.69032zM296.97413,111.27715M298.66445,111.27715l1.46381,0.84516v1.69032l-1.46381,0.84516l-1.46381,-0.84516v-1.69032zM300.35476,111.27715M302.04508,111.27715l1.46381,0.84516v1.69032l-1.46381,0.84516l-1.46381,-0.84516v-1.69032zM313.87731,111.27715M315.56762,111.27715l1.46381,0.84516v1.69032l-1.46381,0.84516l-1.46381,-0.84516v-1.69032zM317.25794,111.27715M318.94826,111.27715l1.46381,0.84516v1.69032l-1.46381,0.84516l-1.46381,-0.84516v-1.69032zM320.63857,111.27715M322.32889,111.27715l1.46381,0.84516v1.69032l-1.46381,0.84516l-1.46381,-0.84516v-1.69032zM324.01921,111.27715M325.70953,111.27715l1.46381,0.84516v1.69032l-1.46381,0.84516l-1.46381,-0.84516v-1.69032zM246.2646,114.65779M247.95492,114.65779l1.46381,0.84516v1.69031l-1.46381,0.84516l-1.46381,-0.84516v-1.69031zM249.64524,114.65779M251.33555,114.65779l1.46381,0.84516v1.69031l-1.46381,0.84516l-1.46381,-0.84516v-1.69031zM253.02587,114.65779M254.71619,114.65779l1.46381,0.84516v1.69031l-1.46381,0.84516l-1.46381,-0.84516v-1.69031zM263.16778,114.65779M264.85809,114.65779l1.46381,0.84516v1.69031l-1.46381,0.84516l-1.46381,-0.84516v-1.69031zM269.92905,114.65779M271.61937,114.65779l1.46381,0.84516v1.69031l-1.46381,0.84516l-1.46381,-0.84516v-1.69031zM276.69032,114.65779M278.38063,114.65779l1.46381,0.84516v1.69031l-1.46381,0.84516l-1.46381,-0.84516v-1.69031zM283.45159,114.65779M285.14191,114.65779l1.46381,0.84516v1.69031l-1.46381,0.84516l-1.46381,-0.84516v-1.69031zM286.83222,114.65779M288.52254,114.65779l1.46381,0.84516v1.69031l-1.46381,0.84516l-1.46381,-0.84516v-1.69031zM290.21286,114.65779M291.90318,114.65779l1.46381,0.84516v1.69031l-1.46381,0.84516l-1.46381,-0.84516v-1.69031zM293.59349,114.65779M295.28381,114.65779l1.46381,0.84516v1.69031l-1.46381,0.84516l-1.46381,-0.84516v-1.69031zM296.97413,114.65779M298.66445,114.65779l1.46381,0.84516v1.69031l-1.46381,0.84516l-1.46381,-0.84516v-1.69031zM300.35476,114.65779M302.04508,114.65779l1.46381,0.84516v1.69031l-1.46381,0.84516l-1.46381,-0.84516v-1.69031zM303.7354,114.65779M305.42572,114.65779l1.46381,0.84516v1.69031l-1.46381,0.84516l-1.46381,-0.84516v-1.69031zM307.11604,114.65779M308.80636,114.65779l1.46381,0.84516v1.69031l-1.46381,0.84516l-1.46381,-0.84516v-1.69031zM310.49667,114.65779M312.18699,114.65779l1.46381,0.84516v1.69031l-1.46381,0.84516l-1.46381,-0.84516v-1.69031zM313.87731,114.65779M315.56762,114.65779l1.46381,0.84516v1.69031l-1.46381,0.84516l-1.46381,-0.84516v-1.69031zM320.63857,114.65779M322.32889,114.65779l1.46381,0.84516v1.69031l-1.46381,0.84516l-1.46381,-0.84516v-1.69031zM324.01921,114.65779M325.70953,114.65779l1.46381,0.84516v1.69031l-1.46381,0.84516l-1.46381,-0.84516v-1.69031zM246.2646,118.03842M247.95492,118.03842l1.46381,0.84516v1.69032l-1.46381,0.84516l-1.46381,-0.84516v-1.69032zM253.02587,118.03842M254.71619,118.03842l1.46381,0.84516v1.69032l-1.46381,0.84516l-1.46381,-0.84516v-1.69032zM269.92905,118.03842M271.61937,118.03842l1.46381,0.84516v1.69032l-1.46381,0.84516l-1.46381,-0.84516v-1.69032zM273.30968,118.03842M275,118.03842l1.46381,0.84516v1.69032l-1.46381,0.84516l-1.46381,-0.84516v-1.69032zM283.45159,118.03842M285.14191,118.03842l1.46381,0.84516v1.69032l-1.46381,0.84516l-1.46381,-0.84516v-1.69032zM286.83222,118.03842M288.52254,118.03842l1.46381,0.84516v1.69032l-1.46381,0.84516l-1.46381,-0.84516v-1.69032zM293.59349,118.03842M295.28381,118.03842l1.46381,0.84516v1.69032l-1.46381,0.84516l-1.46381,-0.84516v-1.69032zM300.35476,118.03842M302.04508,118.03842l1.46381,0.84516v1.69032l-1.46381,0.84516l-1.46381,-0.84516v-1.69032zM303.7354,118.03842M305.42572,118.03842l1.46381,0.84516v1.69032l-1.46381,0.84516l-1.46381,-0.84516v-1.69032zM310.49667,118.03842M312.18699,118.03842l1.46381,0.84516v1.69032l-1.46381,0.84516l-1.46381,-0.84516v-1.69032zM324.01921,118.03842M325.70953,118.03842l1.46381,0.84516v1.69032l-1.46381,0.84516l-1.46381,-0.84516v-1.69032zM256.40651,121.41905M258.09682,121.41905l1.46381,0.84516v1.69032l-1.46381,0.84516l-1.46381,-0.84516v-1.69032zM266.54841,121.41905M268.23873,121.41905l1.46381,0.84516v1.69032l-1.46381,0.84516l-1.46381,-0.84516v-1.69032zM269.92905,121.41905M271.61937,121.41905l1.46381,0.84516v1.69032l-1.46381,0.84516l-1.46381,-0.84516v-1.69032zM273.30968,121.41905M275,121.41905l1.46381,0.84516v1.69032l-1.46381,0.84516l-1.46381,-0.84516v-1.69032zM283.45159,121.41905M285.14191,121.41905l1.46381,0.84516v1.69032l-1.46381,0.84516l-1.46381,-0.84516v-1.69032zM290.21286,121.41905M291.90318,121.41905l1.46381,0.84516v1.69032l-1.46381,0.84516l-1.46381,-0.84516v-1.69032zM296.97413,121.41905M298.66445,121.41905l1.46381,0.84516v1.69032l-1.46381,0.84516l-1.46381,-0.84516v-1.69032zM300.35476,121.41905M302.04508,121.41905l1.46381,0.84516v1.69032l-1.46381,0.84516l-1.46381,-0.84516v-1.69032zM313.87731,121.41905M315.56762,121.41905l1.46381,0.84516v1.69032l-1.46381,0.84516l-1.46381,-0.84516v-1.69032zM317.25794,121.41905M318.94826,121.41905l1.46381,0.84516v1.69032l-1.46381,0.84516l-1.46381,-0.84516v-1.69032zM324.01921,121.41905M325.70953,121.41905l1.46381,0.84516v1.69032l-1.46381,0.84516l-1.46381,-0.84516v-1.69032zM327.39985,121.41905M329.09016,121.41905l1.46381,0.84516v1.69032l-1.46381,0.84516l-1.46381,-0.84516v-1.69032zM249.64524,124.79969M251.33555,124.79969l1.46381,0.84516v1.69032l-1.46381,0.84516l-1.46381,-0.84516v-1.69032zM253.02587,124.79969M254.71619,124.79969l1.46381,0.84516v1.69032l-1.46381,0.84516l-1.46381,-0.84516v-1.69032zM256.40651,124.79969M258.09682,124.79969l1.46381,0.84516v1.69032l-1.46381,0.84516l-1.46381,-0.84516v-1.69032zM263.16778,124.79969M264.85809,124.79969l1.46381,0.84516v1.69032l-1.46381,0.84516l-1.46381,-0.84516v-1.69032zM269.92905,124.79969M271.61937,124.79969l1.46381,0.84516v1.69032l-1.46381,0.84516l-1.46381,-0.84516v-1.69032zM276.69032,124.79969M278.38063,124.79969l1.46381,0.84516v1.69032l-1.46381,0.84516l-1.46381,-0.84516v-1.69032zM280.07095,124.79969M281.76127,124.79969l1.46381,0.84516v1.69032l-1.46381,0.84516l-1.46381,-0.84516v-1.69032zM283.45159,124.79969M285.14191,124.79969l1.46381,0.84516v1.69032l-1.46381,0.84516l-1.46381,-0.84516v-1.69032zM286.83222,124.79969M288.52254,124.79969l1.46381,0.84516v1.69032l-1.46381,0.84516l-1.46381,-0.84516v-1.69032zM317.25794,124.79969M318.94826,124.79969l1.46381,0.84516v1.69032l-1.46381,0.84516l-1.46381,-0.84516v-1.69032zM324.01921,124.79969M325.70953,124.79969l1.46381,0.84516v1.69032l-1.46381,0.84516l-1.46381,-0.84516v-1.69032zM327.39985,124.79969M329.09016,124.79969l1.46381,0.84516v1.69032l-1.46381,0.84516l-1.46381,-0.84516v-1.69032zM253.02587,128.18033M254.71619,128.18033l1.46381,0.84516v1.69031l-1.46381,0.84516l-1.46381,-0.84516v-1.69031zM263.16778,128.18033M264.85809,128.18033l1.46381,0.84516v1.69031l-1.46381,0.84516l-1.46381,-0.84516v-1.69031zM273.30968,128.18033M275,128.18033l1.46381,0.84516v1.69031l-1.46381,0.84516l-1.46381,-0.84516v-1.69031zM280.07095,128.18033M281.76127,128.18033l1.46381,0.84516v1.69031l-1.46381,0.84516l-1.46381,-0.84516v-1.69031zM286.83222,128.18033M288.52254,128.18033l1.46381,0.84516v1.69031l-1.46381,0.84516l-1.46381,-0.84516v-1.69031zM293.59349,128.18033M295.28381,128.18033l1.46381,0.84516v1.69031l-1.46381,0.84516l-1.46381,-0.84516v-1.69031zM296.97413,128.18033M298.66445,128.18033l1.46381,0.84516v1.69031l-1.46381,0.84516l-1.46381,-0.84516v-1.69031zM300.35476,128.18033M302.04508,128.18033l1.46381,0.84516v1.69031l-1.46381,0.84516l-1.46381,-0.84516v-1.69031zM303.7354,128.18033M305.42572,128.18033l1.46381,0.84516v1.69031l-1.46381,0.84516l-1.46381,-0.84516v-1.69031zM307.11604,128.18033M308.80636,128.18033l1.46381,0.84516v1.69031l-1.46381,0.84516l-1.46381,-0.84516v-1.69031zM313.87731,128.18033M315.56762,128.18033l1.46381,0.84516v1.69031l-1.46381,0.84516l-1.46381,-0.84516v-1.69031zM320.63857,128.18033M322.32889,128.18033l1.46381,0.84516v1.69031l-1.46381,0.84516l-1.46381,-0.84516v-1.69031z" fill="#000000" stroke="none" stroke-width="1" stroke-linecap="butt"/><path d="M219.21952,20M219.21952,36.05802v-8.62062c0,-4.05676 3.38063,-7.4374 7.4374,-7.4374h8.62062c4.22579,0 7.60643,3.38064 7.60643,7.60643v8.62062c0,4.05676 -3.38063,7.4374 -7.4374,7.4374h-8.62062c-4.22579,0 -7.60643,-3.38064 -7.60643,-7.60643zM234.77044,23.38063h-7.4374c-2.53548,0 -4.73289,2.19741 -4.73289,4.73289v7.4374c0,2.70451 2.02838,4.73289 4.73289,4.73289h7.4374c2.53548,0 4.73289,-2.19741 4.73289,-4.73289v-7.4374c0,-2.70451 -2.02838,-4.73289 -4.73289,-4.73289z" fill="#000000" stroke="none" stroke-width="1" stroke-linecap="butt"/><path d="M219.21952,20M236.33568,29.69566v4.65852c0,1.3793 -1.38268,2.76198 -2.93439,2.76198h-4.4861c-1.72412,0 -2.93439,-1.21027 -2.93439,-2.93439v-4.4861c0,-1.55509 1.3793,-2.93439 2.93439,-2.93439h4.65852c1.55171,0 2.76198,1.20689 2.76198,2.93439z" fill="#000000" stroke="none" stroke-width="1" stroke-linecap="butt"/><path d="M219.21952,107.89652M219.21952,123.95453v-8.62062c0,-4.05676 3.38063,-7.4374 7.4374,-7.4374h8.62062c4.22579,0 7.60643,3.38064 7.60643,7.60643v8.62062c0,4.05676 -3.38063,7.4374 -7.4374,7.4374h-8.62062c-4.22579,0 -7.60643,-3.38064 -7.60643,-7.60643zM234.77044,111.27715h-7.4374c-2.53548,0 -4.73289,2.19741 -4.73289,4.73289v7.4374c0,2.70451 2.02838,4.73289 4.73289,4.73289h7.4374c2.53548,0 4.73289,-2.19741 4.73289,-4.73289v-7.4374c0,-2.70451 -2.02838,-4.73289 -4.73289,-4.73289z" fill="#000000" stroke="none" stroke-width="1" stroke-linecap="butt"/><path d="M219.21952,107.89652M236.33568,117.59218v4.65852c0,1.3793 -1.38268,2.76198 -2.93439,2.76198h-4.4861c-1.72412,0 -2.93439,-1.21027 -2.93439,-2.93439v-4.4861c0,-1.55509 1.3793,-2.93439 2.93439,-2.93439h4.65852c1.55171,0 2.76198,1.20689 2.76198,2.93439z" fill="#000000" stroke="none" stroke-width="1" stroke-linecap="butt"/><path d="M307.11604,20M307.11604,36.05802v-8.62062c0,-4.05676 3.38063,-7.4374 7.4374,-7.4374h8.62062c4.22579,0 7.60643,3.38064 7.60643,7.60643v8.62062c0,4.05676 -3.38063,7.4374 -7.4374,7.4374h-8.62062c-4.22579,0 -7.60643,-3.38064 -7.60643,-7.60643zM322.66696,23.38063h-7.4374c-2.53548,0 -4.73289,2.19741 -4.73289,4.73289v7.4374c0,2.70451 2.02838,4.73289 4.73289,4.73289h7.4374c2.53548,0 4.73289,-2.19741 4.73289,-4.73289v-7.4374c0,-2.70451 -2.02838,-4.73289 -4.73289,-4.73289z" fill="#000000" stroke="none" stroke-width="1" stroke-linecap="butt"/><path d="M307.11604,20M324.23219,29.69566v4.65852c0,1.3793 -1.38268,2.76198 -2.93439,2.76198h-4.4861c-1.72412,0 -2.93439,-1.21027 -2.93439,-2.93439v-4.4861c0,-1.55509 1.3793,-2.93439 2.93439,-2.93439h4.65852c1.55171,0 2.76198,1.20689 2.76198,2.93439z" fill="#000000" stroke="none" stroke-width="1" stroke-linecap="butt"/><path d="M285.51354,87.02684l-2.1797,2.40914l-0.11472,-2.40914z" fill="#1d95cf" stroke="#000000" stroke-width="0" stroke-linecap="butt"/><path d="M283.37697,89.50057l2.07921,-2.41637" fill="none" stroke="#000000" stroke-width="0.5" stroke-linecap="round"/><path d="M268.53485,86.91212v-16.74925h16.92134v16.74926z" fill="#1d95cf" stroke="#000000" stroke-width="0.5" stroke-linecap="butt"/><path d="M279.8629,89.28123v-12.50263h5.37394v10.30919z" fill="#1d95cf" stroke="none" stroke-width="0" stroke-linecap="butt"/><path d="M266.06028,89.49334v-16.97869h17.15884v16.89904c-0.01685,0.00234 -0.03281,0.00748 -0.0474,0.01493c-0.04133,0.00715 -0.07687,0.03118 -0.09928,0.06472z" fill="#1d95cf" stroke="#000000" stroke-width="0.5" stroke-linecap="butt"/><path d="M263.16839,79.48886l2.89996,-6.97421l2.29441,-2.29442" fill="none" stroke="#000000" stroke-width="0.5" stroke-linecap="round"/><path d="M283.21912,72.74409l2.06497,-2.29442" fill="none" stroke="#000000" stroke-width="0.5" stroke-linecap="round"/><path d="M268.42013,70.1055l1.37665,-6.65381h17.03605l-1.37664,6.65381z" fill="#1d95cf" stroke="#000000" stroke-width="0.5" stroke-linecap="butt"/><path d="M263.17021,79.26027l2.45137,-6.86636l2.36476,-2.06401l-1.04974,7.62354z" fill="#1d95cf" stroke="#000000" stroke-width="0.5" stroke-linecap="butt"/><path d="M265.03586,79.74207l0.97513,-6.99798h17.20813l-0.97513,6.99798z" fill="#1d95cf" stroke="#000000" stroke-width="0.5" stroke-linecap="butt"/><path d="M284.42369,79.74207l-1.20457,-7.17006l2.06497,-2.12233l1.20457,7.22742z" fill="#1d95cf" stroke="#000000" stroke-width="0.5" stroke-linecap="butt"/><path d="M266.1257,72.39993l2.29442,-2.29442v2.29442z" fill="#1d95cf" stroke="#000000" stroke-width="0.5" stroke-linecap="butt"/><path d="M283.04722,89.53428c0,-0.08302 0.0673,-0.15032 0.15032,-0.15032c0.00204,0 0.00407,0.00004 0.00609,0.00012c0.0243,-0.05033 0.07581,-0.08505 0.13544,-0.08505c0.08302,0 0.15032,0.0673 0.15032,0.15032c0,0.08302 -0.0673,0.15032 -0.15032,0.15032c-0.00204,0 -0.00407,-0.00004 -0.00609,-0.00012c-0.0243,0.05033 -0.07582,0.08504 -0.13545,0.08504c-0.08302,0 -0.15032,-0.0673 -0.15032,-0.15032z" fill="#000000" stroke="none" stroke-width="0.5" stroke-linecap="butt"/><path d="M268.10747,76.63738c0,-0.66416 0.53841,-1.20257 1.20257,-1.20257c0.66416,0 1.20257,0.53841 1.20257,1.20257c0,0.66416 -0.53841,1.20257 -1.20257,1.20257c-0.66416,0 -1.20257,-0.53841 -1.20257,-1.20257z" fill="#cf8b1d" stroke="none" stroke-width="0.5" stroke-linecap="butt"/><path d="M276.6619,77.29542c0,-0.66416 0.53841,-1.20257 1.20257,-1.20257c0.66416,0 1.20257,0.53841 1.20257,1.20257c0,0.66416 -0.53841,1.20257 -1.20257,1.20257c-0.66416,0 -1.20257,-0.53841 -1.20257,-1.20257z" fill="#cf8b1d" stroke="none" stroke-width="0.5" stroke-linecap="butt"/><path d="M280.68654,81.61043c0.94925,0.73831 0.21094,1.68756 0.21094,1.68756l-0.73396,0.94148c-1.73847,2.67057 -5.07647,4.18105 -8.32302,3.31767c-2.05456,-0.54638 -3.27013,-2.93352 -4.31273,-4.57117c0,0 -0.64563,-1.01456 0.36893,-1.66019c1.01456,-0.64563 1.66018,0.36893 1.66018,0.36893c0.59171,0.93025 1.67633,3.30221 2.92563,3.54457c2.3429,0.45452 4.49969,-0.42073 5.71501,-2.38529l0.80145,-1.03262c0,0 0.73831,-0.94925 1.68756,-0.21094z" fill="#cf8b1d" stroke="none" stroke-width="0.5" stroke-linecap="butt"/></g></g></svg>